<?xml version="1.0"?>
<svg version="1.1" xmlns="http://www.w3.org/2000/svg" width="400px" height="200px" style="border: dashed 2px #aaa"><path fill="#" d=""/><path fill="#ffffff" d="M44.628,129.491l1.155,6.468s3.08,1.617,7.546,1.617c4.928,0,9.317-2.156,9.317-6.237c0-9.009-26.026-5.005-26.026-24.024c0-10.626,8.393-16.324,19.558-16.324c8.701,0,16.94,3.08,16.94,3.08l-0.385,14.014l-7.084,0l-1.925-6.545s-3.465-1.155-6.776-1.155c-5.467,0-8.162,2.387-8.162,5.467c0,8.932,25.949,5.39,25.949,23.485c0,11.55-8.932,17.864-20.79,17.864c-8.701,0-17.171-2.926-17.171-2.926l0-14.784l7.854,0z M112.88927,146.2l-1.386-5.005s-5.929,5.775-12.474,5.775c-7.469,0-12.012-4.389-12.012-12.089c0-9.086,6.853-12.705,18.557-12.705l5.39,0l0-4.235c0-3.927-2.079-5.621-5.929-5.621c-3.927,0-6.776,1.155-6.776,1.155l-1.155,4.851l-6.93,0l-0.539-11.396s9.317-3.08,16.709-3.08c11.704,0,16.17,4.081,16.17,15.246l0,19.019l5.775,1.386l0,6.16z M110.96427,128.721l-4.389,0c-6.006,0-8.393,1.54-8.393,5.005c0,2.926,1.617,4.62,4.543,4.62c4.081,0,8.239-4.466,8.239-4.466l0-5.159z M154.43154,104.62l0.693,5.313s5.544-6.083,10.703-6.083c4.235,0,7.161,1.386,7.161,1.386l-0.616,14.784l-6.93,0l-1.155-6.545c-4.466,0-8.316,4.312-8.316,4.312l0,20.328l7.7,1.925l0,6.16l-25.41,0l0-6.16l6.16-1.925l0-25.025l-6.16-1.925l0-6.16z M208.75581,136.344l2.772,5.852c-3.773,2.772-8.085,4.774-13.09,4.774c-8.855,0-11.396-6.16-11.396-15.015l0-17.71l-7.161,0l0-7.469l7.161-1.001l0-10.626l11.55-2.079l0,12.705l10.78,0l0,8.47l-10.78,0l0,16.94c0,4.928,0.847,6.93,4.081,6.93c2.079,0,5.082-1.232,6.083-1.771z M236.90008,86.525l0,22.561c2.233-1.848,7.238-5.236,12.936-5.236c7.854,0,12.089,5.236,12.089,13.86l0,20.405l5.39,1.925l0,6.16l-20.944,0l0-6.16l4.004-1.848l0-18.634c0-3.85-1.54-6.16-5.082-6.16c-4.312,0-8.393,4.081-8.393,4.081l0,20.636l4.081,1.925l0,6.16l-21.791,0l0-6.16l6.16-1.925l0-43.274l-6.16-1.54l0-6.16z M303.54435,146.2l-1.386-5.005s-5.929,5.775-12.474,5.775c-7.469,0-12.012-4.389-12.012-12.089c0-9.086,6.853-12.705,18.557-12.705l5.39,0l0-4.235c0-3.927-2.079-5.621-5.929-5.621c-3.927,0-6.776,1.155-6.776,1.155l-1.155,4.851l-6.93,0l-0.539-11.396s9.317-3.08,16.709-3.08c11.704,0,16.17,4.081,16.17,15.246l0,19.019l5.775,1.386l0,6.16z M301.61935,128.721l-4.389,0c-6.006,0-8.393,1.54-8.393,5.005c0,2.926,1.617,4.62,4.543,4.62c4.081,0,8.239-4.466,8.239-4.466l0-5.159z M345.47162,120.097l5.082,0l5.236-7.854l-3.388-1.078l0-6.16l19.866-0.385l0,6.545l-5.39,1.001l-7.161,10.087l8.624,15.939l5.852,1.848l0,6.16l-14.245,0l-9.548-18.788l-4.928,0l0,10.703l4.235,1.925l0,6.16l-21.945,0l0-6.16l6.16-1.925l0-43.274l-6.16-1.54l0-6.16l17.71-0.616l0,33.572z"/></svg>
